# xmcd
#
# Track frame offsets:
#	150
#	30000
#	57603
#	82988
#	110318
#	136543
#	161030
#	195231
#	217397
#	246881
#	272518
#	307567
#
# Disc length: 4366 seconds
#
# Revision: 0
# Processed by: cddbd v1.5.1PL0 Copyright (c) Steve Scherf et al.
# Submitted via: EasyCDDAExtractor 8.0.2.1
#
DISCID=91110c0c
DTITLE=Various Artist - DEE JAY MIX CLUN 2005 MAJ PART 3
DYEAR=2005
DGENRE=Dance
TTITLE0=MISTER ROKK F FANCY - SLICE ME NICE
TTITLE1=PRESIDENT DJ - ARE YOU READY
TTITLE2=STACIATO - CHANGES(RMX)
TTITLE3=TWO DOGS - BAD BOY
TTITLE4=MILK INC. - BLIND
TTITLE5=SUNSEEKER VS. FLASHBIT   - YESAHEL/MAGNETO
TTITLE6=WASABI - WANNA MAKE U MOVE
TTITLE7=THE SUNCLUB - JUMP
TTITLE8=DAVE MCCULLEN - B*TCH
TTITLE9=ICE MC - MY WORLD
TTITLE10=MIKE MH-4 - ELECTRICA SALSA(RMX)
TTITLE11=MOUSTACHE - EVERYWHERE
EXTD=
EXTT0=
EXTT1=
EXTT2=
EXTT3=
EXTT4=
EXTT5=
EXTT6=
EXTT7=
EXTT8=
EXTT9=
EXTT10=
EXTT11=
PLAYORDER=
